<svg width="240" height="112" viewBox="0 0 240 112" fill="none" xmlns="http://www.w3.org/2000/svg">
<rect x="131.359" y="1.78149" width="28.0976" height="42.1465" rx="2" transform="rotate(30 131.359 1.78149)" fill="url(#paint0_linear_490_6112)"/>
<rect x="45" y="80" width="28" height="42" rx="2" transform="rotate(-90 45 80)" fill="url(#paint1_linear_490_6112)"/>
<rect x="98" width="28" height="42" rx="2" fill="url(#paint2_linear_490_6112)"/>
<rect x="47.7593" y="45.1814" width="28.0976" height="42.1465" rx="2" transform="rotate(-60 47.7593 45.1814)" fill="url(#paint3_linear_490_6112)"/>
<rect x="67.5015" y="17.561" width="28.0976" height="42.1465" rx="2" transform="rotate(-30 67.5015 17.561)" fill="url(#paint4_linear_490_6112)"/>
<g clip-path="url(#clip0_490_6112)">
<path d="M5.40434 52.2485V82.86H15.8974V87.9093H0V52.2485H5.40434Z" fill="white"/>
<path d="M78.0276 73.432V87.9093H72.6233V52.2485H78.7377C81.7357 52.2485 83.9842 52.4458 85.5227 52.8797C87.0612 53.3136 88.4024 54.0631 89.5858 55.2466C91.6371 57.2584 92.6627 59.7831 92.6627 62.8205C92.6627 66.0947 91.5582 68.6588 89.3886 70.5917C87.219 72.5247 84.2604 73.4714 80.5523 73.4714H78.0671L78.0276 73.432ZM78.0276 68.4616H80.0395C84.9704 68.4616 87.4556 66.5681 87.4556 62.7416C87.4556 58.9152 84.8915 57.2189 79.8028 57.2189H78.0276V68.4616Z" fill="white"/>
<path d="M105.838 79.7436C103.195 77.2189 101.854 73.9448 101.854 70C101.854 66.0552 103.116 63.0966 105.68 60.5325C107.574 58.5996 109.822 57.3767 112.387 56.9033V51.8146C108.442 52.3668 104.931 54.0236 101.972 56.9822C98.3037 60.572 96.4497 64.9112 96.4497 69.9211C96.4497 75.641 98.4615 80.2564 102.525 83.8067C105.523 86.4102 108.836 87.8698 112.426 88.3826V83.2939C110.02 82.8205 107.85 81.6371 105.878 79.7436H105.838ZM133.728 70.1183C133.728 65.0296 131.913 60.6509 128.245 57.0217C125.247 54.0236 121.736 52.3274 117.751 51.8146V56.8639C120.316 57.3373 122.564 58.5601 124.458 60.4931C126.982 63.0572 128.284 66.2524 128.284 70.0789C128.284 73.9053 126.982 77.0217 124.418 79.6647C122.525 81.5582 120.276 82.781 117.751 83.2544V88.3037C121.736 87.7515 125.247 86.0947 128.205 83.1755C131.874 79.5858 133.688 75.2465 133.688 70.1183H133.728Z" fill="white"/>
<path d="M166.864 54.142V60.5325C163.748 57.929 160.513 56.6272 157.199 56.6272C153.531 56.6272 150.454 57.929 147.929 60.572C145.404 63.1755 144.142 66.4102 144.142 70.1972C144.142 73.9842 145.404 77.1006 147.929 79.6647C150.454 82.2288 153.57 83.5305 157.239 83.5305C159.132 83.5305 160.75 83.215 162.051 82.6232C162.801 82.3077 163.55 81.9132 164.339 81.3609C165.128 80.8086 165.957 80.2169 166.864 79.4674V85.9763C163.787 87.712 160.552 88.5799 157.16 88.5799C152.071 88.5799 147.692 86.8047 144.103 83.2544C140.513 79.6647 138.698 75.3254 138.698 70.2761C138.698 65.7396 140.197 61.6765 143.195 58.1262C146.903 53.7475 151.677 51.5779 157.554 51.5779C160.75 51.5779 163.866 52.4457 166.864 54.1814V54.142Z" fill="white"/>
<path d="M180.039 66.213H195.424V52.2485H200.828V87.9487H195.424V71.3018H180.039V87.9487H174.635V52.2485H180.039V66.213Z" fill="white"/>
<path d="M217.318 74.1815L222.88 62.071L228.166 74.1815H222.643V79.2702H230.335L234.083 87.9487H240L222.959 50L205.286 87.9487H211.085L215.069 79.2702L217.318 74.1815Z" fill="white"/>
<path d="M30.8876 74.1815L36.4497 62.071L41.7357 74.1815H36.213V79.2702H43.9448L47.6923 87.9487H53.57L36.5286 50L18.8954 87.9487H24.6943L28.6785 79.2702L30.8876 74.1815Z" fill="white"/>
</g>
<path d="M231.602 105.144V111.082H229.941V96.8044H233.857C235.609 96.8044 236.901 97.1397 237.734 97.8103C238.574 98.4809 238.994 99.49 238.994 100.838C238.994 102.726 238.037 104.002 236.123 104.666L240 111.082H238.037L234.58 105.144H231.602ZM231.602 103.719H233.877C235.049 103.719 235.908 103.487 236.455 103.025C237.002 102.556 237.275 101.857 237.275 100.926C237.275 99.9815 236.995 99.3012 236.436 98.8845C235.882 98.4679 234.99 98.2595 233.76 98.2595H231.602V103.719Z" fill="#B640FF"/>
<path d="M222.768 111.082H214.809V96.8044H222.768V98.2791H216.469V102.879H222.387V104.344H216.469V109.597H222.768V111.082Z" fill="#B640FF"/>
<path d="M208.836 111.082H206.883L201.678 104.158L200.184 105.486V111.082H198.523V96.8044H200.184V103.885L206.658 96.8044H208.621L202.879 103.006L208.836 111.082Z" fill="#B640FF"/>
<path d="M188.02 98.0837C186.451 98.0837 185.21 98.6078 184.299 99.656C183.394 100.698 182.941 102.127 182.941 103.943C182.941 105.812 183.378 107.257 184.25 108.279C185.129 109.295 186.379 109.802 188 109.802C188.996 109.802 190.132 109.623 191.408 109.265V110.72C190.419 111.092 189.198 111.277 187.746 111.277C185.643 111.277 184.019 110.639 182.873 109.363C181.734 108.087 181.164 106.274 181.164 103.924C181.164 102.452 181.438 101.163 181.984 100.056C182.538 98.9496 183.332 98.0968 184.367 97.4978C185.409 96.8988 186.633 96.5994 188.039 96.5994C189.536 96.5994 190.845 96.8728 191.965 97.4197L191.262 98.8455C190.181 98.3376 189.1 98.0837 188.02 98.0837Z" fill="#B640FF"/>
<path d="M174.225 111.082L172.447 106.541H166.725L164.967 111.082H163.287L168.932 96.7458H170.328L175.943 111.082H174.225ZM171.93 105.047L170.27 100.623C170.055 100.063 169.833 99.3761 169.605 98.5623C169.462 99.1873 169.257 99.8741 168.99 100.623L167.311 105.047H171.93Z" fill="#B640FF"/>
<path d="M150.547 105.144V111.082H148.887V96.8044H152.803C154.554 96.8044 155.846 97.1397 156.68 97.8103C157.52 98.4809 157.939 99.49 157.939 100.838C157.939 102.726 156.982 104.002 155.068 104.666L158.945 111.082H156.982L153.525 105.144H150.547ZM150.547 103.719H152.822C153.994 103.719 154.854 103.487 155.4 103.025C155.947 102.556 156.221 101.857 156.221 100.926C156.221 99.9815 155.941 99.3012 155.381 98.8845C154.827 98.4679 153.936 98.2595 152.705 98.2595H150.547V103.719Z" fill="#B640FF"/>
<path d="M138.207 111.082H136.547V98.2791H132.025V96.8044H142.729V98.2791H138.207V111.082Z" fill="#B640FF"/>
<path d="M117.443 111.082H109.484V96.8044H117.443V98.2791H111.145V102.879H117.062V104.344H111.145V109.597H117.443V111.082Z" fill="white"/>
<path d="M94.7812 105.144V111.082H93.1211V96.8044H97.0371C98.7884 96.8044 100.081 97.1397 100.914 97.8103C101.754 98.4809 102.174 99.49 102.174 100.838C102.174 102.726 101.217 104.002 99.3027 104.666L103.18 111.082H101.217L97.7598 105.144H94.7812ZM94.7812 103.719H97.0566C98.2285 103.719 99.0879 103.487 99.6348 103.025C100.182 102.556 100.455 101.857 100.455 100.926C100.455 99.9815 100.175 99.3012 99.6152 98.8845C99.0618 98.4679 98.1699 98.2595 96.9395 98.2595H94.7812V103.719Z" fill="white"/>
<path d="M85.9277 103.924C85.9277 106.209 85.3483 108.006 84.1895 109.314C83.0371 110.623 81.4323 111.277 79.375 111.277C77.2721 111.277 75.6478 110.636 74.502 109.353C73.3626 108.064 72.793 106.248 72.793 103.904C72.793 101.58 73.3659 99.7797 74.5117 98.5037C75.6576 97.2211 77.2852 96.5798 79.3945 96.5798C81.4453 96.5798 83.0469 97.2309 84.1992 98.533C85.3516 99.835 85.9277 101.632 85.9277 103.924ZM74.5508 103.924C74.5508 105.857 74.9609 107.325 75.7812 108.328C76.6081 109.324 77.806 109.822 79.375 109.822C80.957 109.822 82.1517 109.324 82.959 108.328C83.7663 107.332 84.1699 105.864 84.1699 103.924C84.1699 102.003 83.7663 100.548 82.959 99.5583C82.1582 98.5623 80.9701 98.0642 79.3945 98.0642C77.8125 98.0642 76.6081 98.5655 75.7812 99.5681C74.9609 100.564 74.5508 102.016 74.5508 103.924Z" fill="white"/>
<path d="M63.0312 98.0837C61.4622 98.0837 60.222 98.6078 59.3105 99.656C58.4056 100.698 57.9531 102.127 57.9531 103.943C57.9531 105.812 58.3893 107.257 59.2617 108.279C60.1406 109.295 61.3906 109.802 63.0117 109.802C64.0078 109.802 65.1439 109.623 66.4199 109.265V110.72C65.4303 111.092 64.2096 111.277 62.7578 111.277C60.6549 111.277 59.0306 110.639 57.8848 109.363C56.7454 108.087 56.1758 106.274 56.1758 103.924C56.1758 102.452 56.4492 101.163 56.9961 100.056C57.5495 98.9496 58.3438 98.0968 59.3789 97.4978C60.4206 96.8988 61.6445 96.5994 63.0508 96.5994C64.5482 96.5994 65.8568 96.8728 66.9766 97.4197L66.2734 98.8455C65.1927 98.3376 64.112 98.0837 63.0312 98.0837Z" fill="white"/>
<path d="M49.998 107.283C49.998 108.539 49.5423 109.519 48.6309 110.222C47.7194 110.926 46.4824 111.277 44.9199 111.277C43.2272 111.277 41.9251 111.059 41.0137 110.623V109.021C41.5996 109.269 42.2376 109.464 42.9277 109.607C43.6178 109.75 44.3014 109.822 44.9785 109.822C46.0853 109.822 46.9186 109.614 47.4785 109.197C48.0384 108.774 48.3184 108.188 48.3184 107.439C48.3184 106.944 48.2174 106.541 48.0156 106.228C47.8203 105.909 47.4883 105.616 47.0195 105.349C46.5573 105.082 45.8509 104.78 44.9004 104.441C43.5723 103.966 42.6217 103.403 42.0488 102.752C41.4824 102.101 41.1992 101.251 41.1992 100.203C41.1992 99.1026 41.6126 98.227 42.4395 97.5759C43.2663 96.9249 44.36 96.5994 45.7207 96.5994C47.14 96.5994 48.4453 96.8598 49.6367 97.3806L49.1191 98.8259C47.9408 98.3311 46.7949 98.0837 45.6816 98.0837C44.8027 98.0837 44.1159 98.2725 43.6211 98.6501C43.1263 99.0278 42.8789 99.5518 42.8789 100.222C42.8789 100.717 42.9701 101.124 43.1523 101.443C43.3346 101.756 43.6406 102.045 44.0703 102.312C44.5065 102.573 45.1706 102.862 46.0625 103.181C47.5599 103.715 48.5885 104.288 49.1484 104.9C49.7148 105.512 49.998 106.306 49.998 107.283Z" fill="white"/>
<defs>
<linearGradient id="paint0_linear_490_6112" x1="182.668" y1="43.9279" x2="131.359" y2="43.9279" gradientUnits="userSpaceOnUse">
<stop stop-color="white"/>
<stop offset="1" stop-color="#D9D9D9" stop-opacity="0"/>
</linearGradient>
<linearGradient id="paint1_linear_490_6112" x1="96.1304" y1="122" x2="45" y2="122" gradientUnits="userSpaceOnUse">
<stop stop-color="white"/>
<stop offset="1" stop-color="#D9D9D9" stop-opacity="0"/>
</linearGradient>
<linearGradient id="paint2_linear_490_6112" x1="149.13" y1="42" x2="98" y2="42" gradientUnits="userSpaceOnUse">
<stop stop-color="white"/>
<stop offset="1" stop-color="#D9D9D9" stop-opacity="0"/>
</linearGradient>
<linearGradient id="paint3_linear_490_6112" x1="99.068" y1="87.3278" x2="47.7593" y2="87.3278" gradientUnits="userSpaceOnUse">
<stop stop-color="white"/>
<stop offset="1" stop-color="#D9D9D9" stop-opacity="0"/>
</linearGradient>
<linearGradient id="paint4_linear_490_6112" x1="118.81" y1="59.7075" x2="67.5015" y2="59.7075" gradientUnits="userSpaceOnUse">
<stop stop-color="white"/>
<stop offset="1" stop-color="#D9D9D9" stop-opacity="0"/>
</linearGradient>
<clipPath id="clip0_490_6112">
<rect width="240" height="38.5799" fill="white" transform="translate(0 50)"/>
</clipPath>
</defs>
</svg>
