<svg width="100" height="80" viewBox="0 0 100 80" fill="none" xmlns="http://www.w3.org/2000/svg">
<path fill-rule="evenodd" clip-rule="evenodd" d="M50.0001 73.6304C14.8304 66.4207 7.41441 29.24 17.29 10.5178C21.5186 8.75289 23.1893 4.06215 24.3627 0.767557C24.4524 0.515704 24.5392 0.27201 24.624 0.0384052C20.2581 -0.533661 14.5108 5.40374 16.0693 9.94215C6.4459 28.3486 12.4859 64.3397 43.9199 74.751L43.9915 77.2854C46.0758 77.0723 48.0781 76.7645 50.0001 76.3696C51.9222 76.7645 53.9245 77.0723 56.0088 77.2854L56.0804 74.751C87.513 64.3402 93.5536 28.3518 83.9299 9.94462C85.4914 5.4059 79.7428 -0.533765 75.3761 0.0384052C75.4607 0.271489 75.5473 0.514617 75.6368 0.765871L75.6373 0.767223L75.6374 0.767558V0.767582L75.6374 0.767671L75.6374 0.767708C76.8109 4.06235 78.4817 8.7531 82.7104 10.5179C92.5859 29.2402 85.1698 66.4207 50.0001 73.6304ZM12.9913 14.6181C9.06858 14.028 8.07405 7.27959 10.6006 4.88883C10.6961 5.04804 10.7966 5.21319 10.9004 5.38388L10.9005 5.38396C12.3326 7.73773 14.4068 11.1466 12.9913 14.6181ZM6.62588 11.4354C3.86667 14.732 6.08013 22.68 10.9946 22.7354C12.2288 18.328 9.17715 14.5752 7.06991 11.9837L7.06985 11.9837C6.91616 11.7947 6.76749 11.6118 6.62588 11.4354ZM11.4375 29.5116C7.09919 31.6059 1.48104 25.5141 2.37861 21.3863C2.58381 21.481 2.79809 21.5782 3.0196 21.6786L3.02186 21.6796L3.02217 21.6798L3.02223 21.6798C6.06928 23.0617 10.4822 25.0631 11.4375 29.5116ZM1.36221 30.2232C0.816461 34.3149 6.77536 39.8001 10.8311 37.4149C9.54619 33.1603 5.09427 31.5634 2.01829 30.4601C1.79151 30.3787 1.57221 30.3001 1.36221 30.2232ZM12.7839 44.629C9.6341 48.4049 1.8385 45.1082 0.932617 40.8891C1.1596 40.8904 1.39581 40.8903 1.63987 40.8902C5.05677 40.8892 10.0147 40.8876 12.7839 44.629ZM20.3831 59.3169C17.8677 64.7882 7.60379 63.3865 5.18533 58.6908C5.45794 58.6188 5.74133 58.5421 6.03429 58.4628C10.07 57.3701 15.9201 55.7862 20.3831 59.3169ZM25.0067 9.75391C25.2256 13.1835 19.9592 17.3999 16.7263 15.1864C18.0377 11.7221 21.8317 10.6512 24.4521 9.91165C24.6437 9.85757 24.8291 9.80525 25.0067 9.75391ZM14.9665 22.1451C18.6205 24.5441 24.3994 19.7266 24.0808 15.9064C23.8887 15.9658 23.6886 16.0264 23.4818 16.089C20.5742 16.9697 16.3554 18.2474 14.9665 22.1451ZM24.4554 23.8045C24.4416 27.73 18.1225 32.1237 14.6098 29.3534C16.3712 25.5078 20.7763 24.5804 23.8161 23.9404C24.0369 23.8939 24.2505 23.8489 24.4554 23.8045ZM15.9892 36.8752C20.0559 39.3491 26.1644 33.8999 25.6769 29.7528C25.4666 29.8259 25.2473 29.9007 25.0207 29.978L25.019 29.9786L25.0181 29.9788L25.0174 29.9791C21.8867 31.0463 17.3552 32.5911 15.9892 36.8752ZM27.8792 37.1462C28.6881 41.2351 22.4827 46.7369 17.9339 44.3628C19.1123 40.0989 23.8945 38.489 27.1918 37.379C27.4293 37.2991 27.659 37.2217 27.8792 37.1462ZM17.1112 53.1754C13.9586 57.7076 4.91917 54.7932 3.4897 50.1641C3.7463 50.143 4.01325 50.1194 4.28914 50.0951C8.1117 49.7576 13.6489 49.2687 17.1112 53.1754ZM29.6494 41.9087C31.788 46.3883 27.001 54.8681 21.477 53.6437C21.3711 48.295 25.8807 44.8172 28.9949 42.4155C29.2212 42.241 29.4401 42.0722 29.6494 41.9087ZM28.4806 61.2396C34.1375 61.0845 36.7139 51.6932 33.5475 47.8702C33.3863 48.077 33.2172 48.2912 33.0425 48.5126C30.6076 51.598 27.0745 56.0751 28.4806 61.2396ZM9.30718 68.9745C13.0388 73.7449 24.9011 73.1271 26.5606 66.4258C20.778 63.4041 14.5283 66.4402 10.2156 68.5354L10.2154 68.5355L10.2067 68.5397L10.2057 68.5402L10.2033 68.5414C9.89432 68.6915 9.59532 68.8367 9.30718 68.9745ZM32.9434 71.4179C33.2094 78.3187 21.9869 82.2109 17.078 78.6649C17.3201 78.4493 17.5708 78.2232 17.83 77.9895L17.8316 77.988L17.8324 77.9873C21.3929 74.7762 26.551 70.1244 32.9434 71.4179ZM38.3258 52.9591C42.1515 56.1228 41.3759 65.8299 35.8464 67.0405C33.4985 62.2258 36.1345 57.1673 37.9514 53.6808C38.0811 53.432 38.2066 53.1912 38.3258 52.9591ZM79.6172 59.3169C82.1326 64.7882 92.3965 63.3865 94.815 58.6908C94.5424 58.6188 94.259 58.5421 93.966 58.4628C89.9303 57.3701 84.0802 55.7862 79.6172 59.3169ZM99.067 40.8891C98.1611 45.1082 90.3655 48.4049 87.2157 44.629C89.9848 40.8876 94.9428 40.8892 98.3597 40.8902C98.6038 40.8903 98.84 40.8904 99.067 40.8891ZM89.1659 37.4149C93.2216 39.8001 99.1805 34.3149 98.6348 30.2232C98.426 30.2995 98.208 30.3777 97.9827 30.4585C94.9047 31.5619 90.4514 33.1583 89.1659 37.4149ZM97.621 21.3863C98.5186 25.5141 92.9004 31.6059 88.5621 29.5116C89.5174 25.0631 93.9303 23.0617 96.9774 21.6798L96.9776 21.6797C97.2 21.5788 97.4151 21.4813 97.621 21.3863ZM89.006 22.7354C93.9205 22.68 96.1339 14.732 93.3747 11.4354C93.2331 11.6119 93.0844 11.7947 92.9307 11.9838C90.8235 14.5752 87.7718 18.328 89.006 22.7354ZM89.3992 4.88883C91.9257 7.27959 90.9312 14.028 87.0085 14.6181C85.593 11.1466 87.6671 7.73773 89.0993 5.38396C89.2032 5.21324 89.3037 5.04807 89.3992 4.88883ZM83.2745 15.1864C80.0416 17.3999 74.7753 13.1835 74.9941 9.75391C75.1718 9.80525 75.3571 9.85757 75.5488 9.91165C78.1692 10.6512 81.9631 11.7221 83.2745 15.1864ZM75.9162 15.9064C75.5976 19.7266 81.3764 24.5441 85.0304 22.1451C83.6416 18.2474 79.4228 16.9697 76.5152 16.089L76.515 16.089L76.5143 16.0888L76.5137 16.0886L76.5132 16.0884C76.3071 16.026 76.1076 15.9656 75.9162 15.9064ZM85.3904 29.3534C81.8777 32.1237 75.5587 27.73 75.5448 23.8045C75.7497 23.8489 75.9633 23.8939 76.1842 23.9404C79.224 24.5804 83.6291 25.5078 85.3904 29.3534ZM74.3233 29.7528C73.8357 33.8999 79.9442 39.3491 84.011 36.8752C82.645 32.5911 78.1135 31.0463 74.9828 29.9791L74.9823 29.9789L74.9812 29.9786C74.7539 29.9011 74.534 29.8261 74.3233 29.7528ZM82.066 44.3628C77.5172 46.7369 71.3118 41.2351 72.1207 37.1462C72.3409 37.2217 72.5706 37.2991 72.8081 37.379C76.1054 38.489 80.8876 40.0989 82.066 44.3628ZM96.5105 50.1641C95.081 54.7932 86.0415 57.7076 82.8917 53.1754C86.3542 49.2684 91.892 49.7576 95.7123 50.0952C95.9878 50.1195 96.2543 50.143 96.5105 50.1641ZM78.5201 53.6437C72.9961 54.8681 68.2091 46.3883 70.3477 41.9087C70.557 42.0722 70.7759 42.241 71.0022 42.4155C74.1163 44.8172 78.626 48.295 78.5201 53.6437ZM66.4524 47.8702C63.2859 51.6932 65.8623 61.0845 71.5192 61.2396C72.9254 56.0751 69.3922 51.598 66.9573 48.5126C66.7826 48.2912 66.6135 48.077 66.4524 47.8702ZM73.4369 66.4258C75.0991 73.1271 86.9615 73.7449 90.693 68.9745C90.4003 68.8346 90.0964 68.687 89.7823 68.5345L89.7806 68.5337C85.4657 66.4386 79.2179 63.4049 73.4369 66.4258ZM82.9221 78.6649C78.0132 82.2109 66.7907 78.3187 67.0567 71.4179C73.4491 70.1244 78.6072 74.7762 82.1677 77.9873L82.1685 77.988C82.4282 78.2223 82.6795 78.4489 82.9221 78.6649ZM64.1536 67.0405C58.6241 65.8299 57.8485 56.1228 61.6742 52.9591C61.795 53.1947 61.9223 53.4393 62.0539 53.6921C63.8687 57.1782 66.499 62.231 64.1536 67.0405ZM57.9587 66.2374H42.0794L42.6196 58.2784H43.9826C43.4385 58.1446 43.0333 57.6522 43.0333 57.0676V55.7962V55.7961H43.0335L46.2441 53.3168L47.1901 43.5844H43.8859C43.1561 43.5844 42.5644 42.9928 42.5644 42.263V41.1743C42.5644 40.4445 43.1561 39.8528 43.8859 39.8528H44.8689C42.5162 38.4489 40.4383 36.1103 38.803 33.1114C39.1538 33.9489 39.3148 34.8306 39.1379 35.7558C38.9301 36.8417 38.1267 37.6894 36.5061 37.9969C35.639 38.1604 34.7996 37.5897 34.6361 36.7198C34.3841 35.3818 35.8107 34.3734 36.9826 35.0189C36.2872 33.2431 33.6915 32.8857 32.154 33.3595C32.154 33.3595 32.1457 32.617 32.6969 31.9438C32.637 31.9188 32.5591 31.8852 32.4661 31.8449L32.4659 31.8448L32.4659 31.8448C31.6523 31.4929 29.6762 30.6382 28.2866 30.6556C28.2866 30.6556 28.3116 29.9769 28.6329 29.3758C22.4192 23.608 26.0898 18.3999 30.0541 17.1643C32.9561 16.2593 34.6153 17.5067 35.0569 19.048C35.0477 18.8851 35.0394 18.7217 35.0321 18.5579H50.0194V39.8528H50.0194V18.5579H65.0067C65.0017 18.6699 64.9963 18.7817 64.9904 18.8933C65.4948 17.423 67.139 16.285 69.9458 17.1615C73.9101 18.397 77.5808 23.6052 71.367 29.3729C71.6884 29.9768 71.7133 30.6528 71.7133 30.6528C70.3238 30.6354 68.3476 31.4901 67.5341 31.842C67.4409 31.8822 67.363 31.9159 67.303 31.941C67.8543 32.6142 67.846 33.3538 67.846 33.3538C66.3057 32.8801 63.7099 33.2402 63.0173 35.0132C64.1892 34.3677 65.6131 35.3789 65.361 36.7142C65.1976 37.5841 64.3609 38.1547 63.4911 37.9913C61.8677 37.6866 61.0671 36.8361 60.8593 35.7501V35.7473C60.7017 34.9237 60.8121 34.1346 61.0857 33.3805C59.4738 36.2503 57.4507 38.4912 55.17 39.8528H56.1555C56.8853 39.8528 57.4769 40.4445 57.4769 41.1743V42.263C57.4769 42.9928 56.8853 43.5844 56.1555 43.5844H52.8568L53.8016 53.3169L57.0093 55.7961H57.0094V55.7962V57.0676C57.0094 57.6522 56.6063 58.1446 56.0611 58.2784H57.4213L57.9587 66.2374ZM61.9179 31.7658C62.424 30.9896 63.035 30.2568 63.6093 29.568C65.0173 27.8792 66.2046 26.4551 65.084 25.3061C65.084 25.3061 67.5772 25.6247 67.1035 27.6443C69.3558 26.9074 70.3475 23.8517 69.5525 22.3918C66.7427 23.3637 65.1747 22.0578 64.8755 20.4711C64.4843 24.6819 63.4402 28.5418 61.9179 31.7658ZM35.1495 20.3196C35.5414 24.7231 36.6461 28.748 38.2661 32.0705C37.7283 31.1833 37.0345 30.351 36.3874 29.5747L36.3874 29.5747C34.9796 27.8858 33.7927 26.462 34.9132 25.3145L34.9159 25.309C34.9159 25.309 32.4227 25.6276 32.8964 27.6471C30.6442 26.9102 29.6524 23.8546 30.4475 22.3946C33.3484 23.3981 34.9257 21.9741 35.1495 20.3196ZM35.0321 13.2523H65.0067V14.9149L65.0072 14.9148V14.9175V16.5686L65.0067 16.5691V18.5574H35.0321V13.2523Z" fill="white"/>
</svg>
